<svg id="Слой_1" xmlns="http://www.w3.org/2000/svg" xmlns:xlink="http://www.w3.org/1999/xlink" viewBox="-128.9 287.8 20.2 20.2"><style>.st0{clip-path:url(#SVGID_2_);fill:#fefefe}.st1{clip-path:url(#SVGID_4_);fill:#fefefe}.st2{clip-path:url(#SVGID_6_);fill:gray}</style><defs><path id="SVGID_1_" d="M-117.8 300.6l-.7.3.9-4.8c.1-.5-.4-1-1-.7l-1.8 1c-.3.2-.4.6-.3.9s.6.4.9.3l.4-.2-.9 4.6c-.1.4.3.8.7.8.1 0 .2 0 .3-.1l1.9-.8c.4-.1.5-.5.4-.9-.1-.4-.5-.6-.8-.4"/></defs><clipPath id="SVGID_2_"><use xlink:href="#SVGID_1_" overflow="visible"/></clipPath><path class="st0" d="M-125.7 290.3h13.8v17.4h-13.8z"/><g><defs><path id="SVGID_3_" d="M-118.3 294.1c.5 0 1-.4 1-1 0-.5-.4-1-1-1-.5 0-1 .4-1 1s.5 1 1 1"/></defs><clipPath id="SVGID_4_"><use xlink:href="#SVGID_3_" overflow="visible"/></clipPath><path class="st1" d="M-124.3 287.1h11.9V299h-11.9z"/></g><g><defs><path id="SVGID_5_" d="M-108.6 297.9c0-5.6-4.5-10.1-10.1-10.1s-10.1 4.5-10.1 10.1 4.5 10.1 10.1 10.1c5.5.1 10.1-4.5 10.1-10.1zm-1 0c0 5-4.1 9.1-9.1 9.1s-9.1-4.1-9.1-9.1 4.1-9.1 9.1-9.1 9.1 4.1 9.1 9.1z"/></defs><clipPath id="SVGID_6_"><use xlink:href="#SVGID_5_" overflow="visible"/></clipPath><path class="st2" d="M-133.9 282.8h30.2V313h-30.2z"/></g></svg>