<svg id="Слой_1" xmlns="http://www.w3.org/2000/svg" xmlns:xlink="http://www.w3.org/1999/xlink" viewBox="-129.3 287.5 21 21"><style>.st0{display:none;stroke:#000;stroke-miterlimit:10}.st1{clip-path:url(#SVGID_2_);fill:#FFF}.st2{clip-path:url(#SVGID_4_);fill:#FFF}.st3{clip-path:url(#SVGID_6_);fill:#7f7f7f}</style><path class="st0" d="M-132.5 285.2h22v28h-22z"/><title>Page 1</title><defs><path id="SVGID_1_" d="M-114.3 297c-4.6 0-7.9 1.8-6.4 6.3 4.5 1.6 6.3-1.7 6.4-6.3zm-4.9 4.3c.3 0 .5.3.5.6s-.3.5-.6.5-.5-.3-.5-.6.3-.5.6-.5z"/></defs><clipPath id="SVGID_2_"><use xlink:href="#SVGID_1_" overflow="visible"/></clipPath><path class="st1" d="M-126.1 292h16.8v16.7h-16.8z"/><g><defs><path id="SVGID_3_" d="M-123.3 292.4c3.1 0 5.3 1.2 4.3 4.2-3.1 1.1-4.3-1.1-4.3-4.2zm3.2 2.9c-.2 0-.4.2-.3.4 0 .2.2.4.4.3s.4-.2.3-.4c0-.2-.2-.3-.4-.3z"/></defs><clipPath id="SVGID_4_"><use xlink:href="#SVGID_3_" overflow="visible"/></clipPath><path class="st2" d="M-128.3 287.4h14.5v14.5h-14.5z"/></g><g><defs><path id="SVGID_5_" d="M-108.3 298c0-5.8-4.7-10.5-10.5-10.5s-10.5 4.7-10.5 10.5 4.7 10.5 10.5 10.5 10.5-4.7 10.5-10.5zm-1 0c0 5.2-4.3 9.5-9.5 9.5s-9.5-4.3-9.5-9.5 4.3-9.5 9.5-9.5 9.5 4.3 9.5 9.5z"/></defs><clipPath id="SVGID_6_"><use xlink:href="#SVGID_5_" overflow="visible"/></clipPath><path class="st3" d="M-134.3 282.5h31v31h-31z"/></g></svg>