<svg width="22" height="22" viewBox="0 0 22 22" xmlns="http://www.w3.org/2000/svg"><title>shutterstock_240011764</title><g fill="none" fill-rule="evenodd"><path d="M11.444 1.028l1.798-.92a.974.974 0 0 1 1.263.338L15.6 2.142c.17.263.458.43.77.444l2.018.102c.5.025.9.424.924.924l.102 2.017c.015.312.18.6.444.77l1.696 1.095c.42.272.567.818.34 1.263l-.922 1.798a.974.974 0 0 0 0 .888l.92 1.798a.974.974 0 0 1-.338 1.263L19.858 15.6a.974.974 0 0 0-.444.77l-.102 2.018c-.025.5-.424.9-.924.924l-2.017.102a.974.974 0 0 0-.77.444l-1.095 1.697a.974.974 0 0 1-1.263.338l-1.798-.92a.974.974 0 0 0-.888 0l-1.798.92a.974.974 0 0 1-1.263-.338L6.4 19.858a.974.974 0 0 0-.77-.444l-2.018-.102a.975.975 0 0 1-.924-.924l-.102-2.017a.974.974 0 0 0-.444-.77L.446 14.506a.974.974 0 0 1-.34-1.263l.922-1.798a.974.974 0 0 0 0-.888l-.92-1.798a.974.974 0 0 1 .338-1.263L2.14 6.4a.974.974 0 0 0 .444-.77l.102-2.018c.025-.5.424-.9.924-.924l2.017-.102c.312-.015.6-.18.77-.444L7.494.446a.974.974 0 0 1 1.263-.34l1.798.922c.28.143.61.143.888 0" fill="#4FB748"/><path d="M4.236 15.324L2.98 10.637l.92-.247 2.758 2.616-.84-3.13.88-.235 1.257 4.688-.95.254-2.708-2.55.82 3.056-.88.236M8.955 14.06L7.7 9.372l3.475-.93.212.792-2.53.677.28 1.04 2.352-.63.21.788-2.352.63.342 1.276 2.618-.7.212.788-3.565.955M13.987 12.71l-2.374-4.386.968-.26 1.57 3.03-.005-3.448 1.125-.302 1.7 3.054-.16-3.467.954-.254.117 4.992-1.003.27-1.872-3.255.01 3.753-1.028.275" fill="#FFF"/></g></svg>